<svg width="48" height="49" viewBox="0 0 48 49" fill="none" xmlns="http://www.w3.org/2000/svg">
<g filter="url(#filter0_ddd_235_3313)">
<circle cx="24" cy="23" r="19" fill="white"/>
<path fill-rule="evenodd" clip-rule="evenodd" d="M16.0835 23.0002C16.0835 22.5629 16.4379 22.2085 16.8752 22.2085H31.1252C31.5624 22.2085 31.9168 22.5629 31.9168 23.0002C31.9168 23.4374 31.5624 23.7918 31.1252 23.7918H16.8752C16.4379 23.7918 16.0835 23.4374 16.0835 23.0002Z" fill="#A7A7A7"/>
<path fill-rule="evenodd" clip-rule="evenodd" d="M16.0835 18.2502C16.0835 17.8129 16.4379 17.4585 16.8752 17.4585H31.1252C31.5624 17.4585 31.9168 17.8129 31.9168 18.2502C31.9168 18.6874 31.5624 19.0418 31.1252 19.0418H16.8752C16.4379 19.0418 16.0835 18.6874 16.0835 18.2502Z" fill="#A7A7A7"/>
<path fill-rule="evenodd" clip-rule="evenodd" d="M16.0835 27.7502C16.0835 27.3129 16.4379 26.9585 16.8752 26.9585H31.1252C31.5624 26.9585 31.9168 27.3129 31.9168 27.7502C31.9168 28.1874 31.5624 28.5418 31.1252 28.5418H16.8752C16.4379 28.5418 16.0835 28.1874 16.0835 27.7502Z" fill="#A7A7A7"/>
</g>
<defs>
<filter id="filter0_ddd_235_3313" x="0" y="0" width="48" height="49" filterUnits="userSpaceOnUse" color-interpolation-filters="sRGB">
<feFlood flood-opacity="0" result="BackgroundImageFix"/>
<feColorMatrix in="SourceAlpha" type="matrix" values="0 0 0 0 0 0 0 0 0 0 0 0 0 0 0 0 0 0 127 0" result="hardAlpha"/>
<feOffset dy="1"/>
<feGaussianBlur stdDeviation="2.5"/>
<feColorMatrix type="matrix" values="0 0 0 0 0.748125 0 0 0 0 0.767812 0 0 0 0 0.7875 0 0 0 0.24 0"/>
<feBlend mode="normal" in2="BackgroundImageFix" result="effect1_dropShadow_235_3313"/>
<feColorMatrix in="SourceAlpha" type="matrix" values="0 0 0 0 0 0 0 0 0 0 0 0 0 0 0 0 0 0 127 0" result="hardAlpha"/>
<feOffset dy="3"/>
<feGaussianBlur stdDeviation="2"/>
<feColorMatrix type="matrix" values="0 0 0 0 0.748125 0 0 0 0 0.767812 0 0 0 0 0.7875 0 0 0 0.18 0"/>
<feBlend mode="normal" in2="effect1_dropShadow_235_3313" result="effect2_dropShadow_235_3313"/>
<feColorMatrix in="SourceAlpha" type="matrix" values="0 0 0 0 0 0 0 0 0 0 0 0 0 0 0 0 0 0 127 0" result="hardAlpha"/>
<feOffset dy="2"/>
<feGaussianBlur stdDeviation="2"/>
<feColorMatrix type="matrix" values="0 0 0 0 0.748125 0 0 0 0 0.767812 0 0 0 0 0.7875 0 0 0 0.2 0"/>
<feBlend mode="normal" in2="effect2_dropShadow_235_3313" result="effect3_dropShadow_235_3313"/>
<feBlend mode="normal" in="SourceGraphic" in2="effect3_dropShadow_235_3313" result="shape"/>
</filter>
</defs>
</svg>
