<svg width="165" height="40" viewBox="0 0 165 40" fill="none" xmlns="http://www.w3.org/2000/svg">
<path d="M0 7C0 3.13401 3.13402 0 7.00002 0H33.0001C36.8661 0 40.0001 3.13401 40.0001 7V33C40.0001 36.866 36.8661 40 33.0001 40H7.00002C3.13402 40 0 36.866 0 33V7Z" fill="#6E76F1"/>
<path fill-rule="evenodd" clip-rule="evenodd" d="M32.5375 13.7087H28.5485C26.6072 11.1334 23.5031 9.46453 20.0088 9.46453C14.1325 9.46453 9.36217 14.1828 9.36217 19.9938C9.36217 25.8053 14.1325 30.5231 20.0088 30.5231C23.5031 30.5231 26.6072 28.8542 28.5485 26.2794H32.5375C30.2162 30.7922 25.475 33.8867 20.0088 33.8867C12.2556 33.8867 5.9614 27.6618 5.9614 19.9938C5.9614 12.3263 12.2556 6.10137 20.0088 6.10137C25.475 6.10137 30.2162 9.19595 32.5375 13.7087V13.7087ZM23.3517 20.6142C23.0569 22.1749 21.6713 23.3575 20.0088 23.3575C18.1314 23.3575 16.6075 21.8504 16.6075 19.9938C16.6075 18.1377 18.1314 16.6307 20.0088 16.6307C21.6713 16.6307 23.0569 17.8132 23.3517 19.3739H40.0001V20.6142H23.3517Z" fill="white"/>
<path d="M55.7229 28C54.2637 28 52.9421 27.6806 51.7582 27.0417C50.5881 26.3889 49.6657 25.4931 48.9912 24.3542C48.3304 23.2153 48 21.9306 48 20.5C48 19.0694 48.3373 17.7847 49.0118 16.6458C49.6864 15.5069 50.6087 14.6181 51.7788 13.9792C52.9627 13.3264 54.2843 13 55.7435 13C56.9274 13 58.0081 13.2083 58.9855 13.625C59.9629 14.0417 60.7889 14.6458 61.4634 15.4375L59.7289 17.0833C58.6826 15.9444 57.3955 15.375 55.8674 15.375C54.8763 15.375 53.9883 15.5972 53.2037 16.0417C52.419 16.4722 51.8064 17.0764 51.3659 17.8542C50.9253 18.6319 50.7051 19.5139 50.7051 20.5C50.7051 21.4861 50.9253 22.3681 51.3659 23.1458C51.8064 23.9236 52.419 24.5347 53.2037 24.9792C53.9883 25.4097 54.8763 25.625 55.8674 25.625C57.3955 25.625 58.6826 25.0486 59.7289 23.8958L61.4634 25.5625C60.7889 26.3542 59.956 26.9583 58.9648 27.375C57.9874 27.7917 56.9068 28 55.7229 28Z" fill="#363636"/>
<path d="M63.7878 12.3333H66.369V27.7917H63.7878V12.3333Z" fill="#363636"/>
<path d="M80.1228 22.2917C80.1228 22.4722 80.109 22.7292 80.0815 23.0625H71.4294C71.5808 23.8819 71.9731 24.5347 72.6064 25.0208C73.2534 25.4931 74.0518 25.7292 75.0017 25.7292C76.2131 25.7292 77.2112 25.3264 77.9959 24.5208L79.3794 26.125C78.8838 26.7222 78.2574 27.1736 77.5003 27.4792C76.7431 27.7847 75.8896 27.9375 74.9398 27.9375C73.7283 27.9375 72.6614 27.6944 71.7391 27.2083C70.8168 26.7222 70.1009 26.0486 69.5916 25.1875C69.096 24.3125 68.8482 23.3264 68.8482 22.2292C68.8482 21.1458 69.0891 20.1736 69.5709 19.3125C70.0665 18.4375 70.7479 17.7569 71.6152 17.2708C72.4825 16.7847 73.4599 16.5417 74.5474 16.5417C75.6212 16.5417 76.5779 16.7847 77.4177 17.2708C78.2712 17.7431 78.932 18.4167 79.4 19.2917C79.8818 20.1528 80.1228 21.1528 80.1228 22.2917ZM74.5474 18.625C73.7214 18.625 73.0194 18.875 72.4412 19.375C71.8768 19.8611 71.5326 20.5139 71.4087 21.3333H77.6655C77.5553 20.5278 77.2181 19.875 76.6537 19.375C76.0892 18.875 75.3872 18.625 74.5474 18.625Z" fill="#363636"/>
<path d="M92.7252 16.6667L87.9965 27.7917H85.3327L80.604 16.6667H83.2884L86.7162 24.9167L90.2473 16.6667H92.7252Z" fill="#363636"/>
<path d="M104.402 22.2917C104.402 22.4722 104.388 22.7292 104.361 23.0625H95.7086C95.86 23.8819 96.2523 24.5347 96.8856 25.0208C97.5326 25.4931 98.331 25.7292 99.2809 25.7292C100.492 25.7292 101.49 25.3264 102.275 24.5208L103.659 26.125C103.163 26.7222 102.537 27.1736 101.779 27.4792C101.022 27.7847 100.169 27.9375 99.219 27.9375C98.0075 27.9375 96.9406 27.6944 96.0183 27.2083C95.096 26.7222 94.3801 26.0486 93.8708 25.1875C93.3752 24.3125 93.1274 23.3264 93.1274 22.2292C93.1274 21.1458 93.3683 20.1736 93.8501 19.3125C94.3457 18.4375 95.0271 17.7569 95.8944 17.2708C96.7617 16.7847 97.7391 16.5417 98.8266 16.5417C99.9004 16.5417 100.857 16.7847 101.697 17.2708C102.55 17.7431 103.211 18.4167 103.679 19.2917C104.161 20.1528 104.402 21.1528 104.402 22.2917ZM98.8266 18.625C98.0006 18.625 97.2986 18.875 96.7204 19.375C96.156 19.8611 95.8118 20.5139 95.6879 21.3333H101.945C101.835 20.5278 101.497 19.875 100.933 19.375C100.368 18.875 99.6664 18.625 98.8266 18.625Z" fill="#363636"/>
<path d="M109.339 18.2917C110.082 17.125 111.39 16.5417 113.262 16.5417V19.0208C113.042 18.9792 112.842 18.9583 112.663 18.9583C111.658 18.9583 110.874 19.2569 110.309 19.8542C109.745 20.4375 109.463 21.2847 109.463 22.3958V27.7917H106.881V16.6667H109.339V18.2917Z" fill="#363636"/>
<path d="M115.452 12.3333H118.033V27.7917H115.452V12.3333Z" fill="#363636"/>
<path d="M125.633 16.5417C127.258 16.5417 128.496 16.9375 129.35 17.7292C130.217 18.5069 130.651 19.6875 130.651 21.2708V27.7917H128.214V26.4375C127.898 26.9236 127.443 27.2986 126.851 27.5625C126.273 27.8125 125.571 27.9375 124.745 27.9375C123.919 27.9375 123.196 27.7986 122.577 27.5208C121.958 27.2292 121.476 26.8333 121.132 26.3333C120.801 25.8194 120.636 25.2431 120.636 24.6042C120.636 23.6042 121.001 22.8056 121.73 22.2083C122.474 21.5972 123.637 21.2917 125.22 21.2917H128.07V21.125C128.07 20.3472 127.836 19.75 127.368 19.3333C126.913 18.9167 126.232 18.7083 125.323 18.7083C124.704 18.7083 124.091 18.8056 123.486 19C122.894 19.1944 122.391 19.4653 121.978 19.8125L120.966 17.9167C121.545 17.4722 122.24 17.1319 123.052 16.8958C123.864 16.6597 124.725 16.5417 125.633 16.5417ZM125.282 26.0417C125.929 26.0417 126.5 25.8958 126.996 25.6042C127.505 25.2986 127.863 24.8681 128.07 24.3125V23.0208H125.406C123.919 23.0208 123.176 23.5139 123.176 24.5C123.176 24.9722 123.362 25.3472 123.733 25.625C124.105 25.9028 124.621 26.0417 125.282 26.0417Z" fill="#363636"/>
<path d="M140.22 16.5417C141.611 16.5417 142.726 16.9514 143.566 17.7708C144.405 18.5903 144.825 19.8056 144.825 21.4167V27.7917H142.244V21.75C142.244 20.7778 142.017 20.0486 141.563 19.5625C141.108 19.0625 140.461 18.8125 139.621 18.8125C138.672 18.8125 137.921 19.1042 137.371 19.6875C136.82 20.2569 136.545 21.0833 136.545 22.1667V27.7917H133.964V16.6667H136.421V18.1042C136.848 17.5903 137.384 17.2014 138.031 16.9375C138.678 16.6736 139.408 16.5417 140.22 16.5417Z" fill="#363636"/>
<path d="M159 12.3333V27.7917H156.522V26.3542C156.095 26.8819 155.565 27.2778 154.932 27.5417C154.313 27.8056 153.624 27.9375 152.867 27.9375C151.807 27.9375 150.85 27.7014 149.997 27.2292C149.157 26.7569 148.496 26.0903 148.015 25.2292C147.533 24.3542 147.292 23.3542 147.292 22.2292C147.292 21.1042 147.533 20.1111 148.015 19.25C148.496 18.3889 149.157 17.7222 149.997 17.25C150.85 16.7778 151.807 16.5417 152.867 16.5417C153.597 16.5417 154.264 16.6667 154.87 16.9167C155.476 17.1667 155.992 17.5417 156.419 18.0417V12.3333H159ZM153.177 25.7083C153.796 25.7083 154.354 25.5694 154.849 25.2917C155.345 25 155.737 24.5903 156.026 24.0625C156.316 23.5347 156.46 22.9236 156.46 22.2292C156.46 21.5347 156.316 20.9236 156.026 20.3958C155.737 19.8681 155.345 19.4653 154.849 19.1875C154.354 18.8958 153.796 18.75 153.177 18.75C152.557 18.75 152 18.8958 151.504 19.1875C151.009 19.4653 150.616 19.8681 150.327 20.3958C150.038 20.9236 149.894 21.5347 149.894 22.2292C149.894 22.9236 150.038 23.5347 150.327 24.0625C150.616 24.5903 151.009 25 151.504 25.2917C152 25.5694 152.557 25.7083 153.177 25.7083Z" fill="#363636"/>
</svg>
